<svg id="visual" viewBox="0 0 960 540" width="960" height="540" xmlns="http://www.w3.org/2000/svg" xmlns:xlink="http://www.w3.org/1999/xlink" version="1.1"><rect x="0" y="0" width="960" height="540" fill="#190526"></rect><path d="M0 370L22.8 367.5C45.7 365 91.3 360 137 354.2C182.7 348.3 228.3 341.7 274 339.5C319.7 337.3 365.3 339.7 411.2 345.5C457 351.3 503 360.7 548.8 365.5C594.7 370.3 640.3 370.7 686 372C731.7 373.3 777.3 375.7 823 369.7C868.7 363.7 914.3 349.3 937.2 342.2L960 335L960 541L937.2 541C914.3 541 868.7 541 823 541C777.3 541 731.7 541 686 541C640.3 541 594.7 541 548.8 541C503 541 457 541 411.2 541C365.3 541 319.7 541 274 541C228.3 541 182.7 541 137 541C91.3 541 45.7 541 22.8 541L0 541Z" fill="#9f2cbf"></path><path d="M0 365L22.8 374.8C45.7 384.7 91.3 404.3 137 410.8C182.7 417.3 228.3 410.7 274 399.3C319.7 388 365.3 372 411.2 368.8C457 365.7 503 375.3 548.8 375.8C594.7 376.3 640.3 367.7 686 367.2C731.7 366.7 777.3 374.3 823 385.8C868.7 397.3 914.3 412.7 937.2 420.3L960 428L960 541L937.2 541C914.3 541 868.7 541 823 541C777.3 541 731.7 541 686 541C640.3 541 594.7 541 548.8 541C503 541 457 541 411.2 541C365.3 541 319.7 541 274 541C228.3 541 182.7 541 137 541C91.3 541 45.7 541 22.8 541L0 541Z" fill="#8928ac"></path><path d="M0 459L22.8 458.5C45.7 458 91.3 457 137 449C182.7 441 228.3 426 274 418.2C319.7 410.3 365.3 409.7 411.2 412.2C457 414.7 503 420.3 548.8 418.2C594.7 416 640.3 406 686 402.7C731.7 399.3 777.3 402.7 823 411C868.7 419.3 914.3 432.7 937.2 439.3L960 446L960 541L937.2 541C914.3 541 868.7 541 823 541C777.3 541 731.7 541 686 541C640.3 541 594.7 541 548.8 541C503 541 457 541 411.2 541C365.3 541 319.7 541 274 541C228.3 541 182.7 541 137 541C91.3 541 45.7 541 22.8 541L0 541Z" fill="#752499"></path><path d="M0 462L22.8 457.2C45.7 452.3 91.3 442.7 137 438.2C182.7 433.7 228.3 434.3 274 437.7C319.7 441 365.3 447 411.2 451.3C457 455.7 503 458.3 548.8 456.8C594.7 455.3 640.3 449.7 686 446.7C731.7 443.7 777.3 443.3 823 444C868.7 444.7 914.3 446.3 937.2 447.2L960 448L960 541L937.2 541C914.3 541 868.7 541 823 541C777.3 541 731.7 541 686 541C640.3 541 594.7 541 548.8 541C503 541 457 541 411.2 541C365.3 541 319.7 541 274 541C228.3 541 182.7 541 137 541C91.3 541 45.7 541 22.8 541L0 541Z" fill="#611f86"></path><path d="M0 491L22.8 494C45.7 497 91.3 503 137 505.3C182.7 507.7 228.3 506.3 274 505C319.7 503.7 365.3 502.3 411.2 501.5C457 500.7 503 500.3 548.8 496.3C594.7 492.3 640.3 484.7 686 482.7C731.7 480.7 777.3 484.3 823 488.2C868.7 492 914.3 496 937.2 498L960 500L960 541L937.2 541C914.3 541 868.7 541 823 541C777.3 541 731.7 541 686 541C640.3 541 594.7 541 548.8 541C503 541 457 541 411.2 541C365.3 541 319.7 541 274 541C228.3 541 182.7 541 137 541C91.3 541 45.7 541 22.8 541L0 541Z" fill="#4f1a73"></path></svg>